# xmcd CD database file
#
# Track frame offsets:
#	182
#	24125
#	61395
#	69695
#	93252
#	108737
#	133285
#	139002
#
# Disc length: 2384 seconds
#
# Revision: 0
# Processed by: cddbd v1.5.2PL0 Copyright (c) Steve Scherf et al.
# Submitted via: CDex 1.70beta2
#
DISCID=70094e08
DTITLE=Coronarias Dans - Visitor
DYEAR=1973
DGENRE=Jazz
TTITLE0=Se Det
TTITLE1=Morning
TTITLE2=Esrom
TTITLE3=Don't Know
TTITLE4=Visitor
TTITLE5=Tied Waves
TTITLE6=Sagittarius
TTITLE7=Which Witch
EXTD=YEAR: 1973
EXTT0=
EXTT1=
EXTT2=
EXTT3=
EXTT4=
EXTT5=
EXTT6=
EXTT7=
PLAYORDER=
